<svg width="50" height="50" viewBox="0 0 50 50" fill="none" xmlns="http://www.w3.org/2000/svg">
<path d="M25.1435 49.5432C38.7831 49.5432 49.8401 38.4529 49.8401 24.7716C49.8401 11.0902 38.7831 0 25.1435 0C11.5039 0 0.446777 11.0902 0.446777 24.7716C0.446777 38.4529 11.5039 49.5432 25.1435 49.5432Z" fill="#4793FF"/>
<path d="M25.1436 0C38.7613 0 49.8402 11.1125 49.8402 24.7716C49.8402 38.4306 38.7613 49.5432 25.1436 49.5432V0Z" fill="#5E69E2"/>
<path d="M25.1432 43.3244C35.3586 43.3244 43.6399 35.0184 43.6399 24.7717C43.6399 14.5249 35.3586 6.21899 25.1432 6.21899C14.9277 6.21899 6.64648 14.5249 6.64648 24.7717C6.64648 35.0184 14.9277 43.3244 25.1432 43.3244Z" fill="#2EBEEF"/>
<path d="M25.1436 6.21899C35.3427 6.21899 43.6403 14.541 43.6403 24.7717C43.6403 35.0023 35.3427 43.3244 25.1436 43.3244V6.21899Z" fill="#4793FF"/>
<path d="M23.9395 12.3066L16.1896 23.9666C15.8655 24.4533 15.8655 25.0887 16.1896 25.5767L23.9395 37.2367C24.5122 38.0987 25.7747 38.0987 26.3475 37.2367L34.0973 25.5767C34.4215 25.0887 34.4215 24.4533 34.0973 23.9666L26.3475 12.3066C25.7747 11.4445 24.5123 11.4445 23.9395 12.3066Z" fill="#76E5F6"/>
<path d="M25.1436 26.6468V37.8832C25.6024 37.8832 26.0612 37.6677 26.3476 37.2367L34.0975 25.5767C34.2481 25.35 34.3279 25.0912 34.3384 24.8311L25.4273 26.6183C25.3337 26.6369 25.2386 26.6468 25.1436 26.6468Z" fill="#2EBEEF"/>
<path d="M25.143 11.66C24.6842 11.66 24.2254 11.8756 23.939 12.3066L16.1891 23.9666C16.0158 24.2279 15.9361 24.5301 15.9482 24.8311L24.8592 26.6183C24.9529 26.6369 25.048 26.6468 25.143 26.6468V11.66Z" fill="#C2F4FB"/>
</svg>
